<svg xmlns="http://www.w3.org/2000/svg" xmlns:xlink="http://www.w3.org/1999/xlink" width="1024" zoomAndPan="magnify" viewBox="0 0 768 767.999994" height="1024" preserveAspectRatio="xMidYMid meet" version="1.0"><defs><clipPath id="744b5aea22"><path d="M 118.5625 298 L 461 298 L 461 640.519531 L 118.5625 640.519531 Z M 118.5625 298 " clip-rule="nonzero"/></clipPath><clipPath id="7d9d1e8cae"><path d="M 307 298 L 649.5625 298 L 649.5625 640.519531 L 307 640.519531 Z M 307 298 " clip-rule="nonzero"/></clipPath></defs><path fill="#4096a6" d="M 367.527344 279.664062 C 376.625 288.761719 391.371094 288.761719 400.46875 279.664062 L 466.964844 216.710938 C 486.257812 197.417969 486.257812 166.136719 466.964844 146.847656 C 447.671875 127.554688 416.390625 127.554688 397.097656 146.847656 L 383.996094 159.945312 L 370.898438 146.84375 C 351.605469 127.550781 320.324219 127.550781 301.03125 146.84375 C 281.738281 166.136719 281.738281 197.417969 301.03125 216.710938 Z M 367.527344 279.664062 " fill-opacity="1" fill-rule="nonzero"/><g clip-path="url(#744b5aea22)"><path fill="#4096a6" d="M 336.203125 584.300781 C 321.4375 590.300781 305.8125 593.351562 289.679688 593.351562 C 221.421875 593.351562 165.890625 537.816406 165.890625 469.558594 C 165.890625 401.300781 221.421875 345.769531 289.679688 345.769531 C 307.605469 345.769531 324.652344 349.601562 340.050781 356.488281 C 340.28125 356.578125 340.511719 356.671875 340.734375 356.792969 C 359.546875 365.34375 375.851562 378.46875 388.230469 394.738281 C 388.585938 395.105469 388.890625 395.5 389.132812 395.929688 C 404.417969 416.523438 413.472656 442.003906 413.472656 469.558594 C 413.472656 495.054688 405.851562 519.347656 391.402344 540.113281 C 401.398438 552.40625 413.941406 562.542969 428.226562 569.714844 C 449.4375 540.460938 460.628906 505.9375 460.628906 469.558594 C 460.628906 375.292969 383.941406 298.609375 289.679688 298.609375 C 195.417969 298.609375 118.730469 375.296875 118.730469 469.558594 C 118.730469 563.820312 195.417969 640.507812 289.679688 640.507812 C 319.015625 640.507812 347.632812 633.023438 373.015625 618.828125 C 359.210938 609.058594 346.820312 597.425781 336.203125 584.300781 Z M 336.203125 584.300781 " fill-opacity="1" fill-rule="nonzero"/></g><g clip-path="url(#7d9d1e8cae)"><path fill="#4096a6" d="M 478.316406 298.609375 C 448.980469 298.609375 420.363281 306.097656 394.980469 320.292969 C 408.785156 330.058594 421.175781 341.691406 431.792969 354.820312 C 446.558594 348.816406 462.183594 345.769531 478.316406 345.769531 C 546.574219 345.769531 602.105469 401.300781 602.105469 469.558594 C 602.105469 537.820312 546.574219 593.351562 478.316406 593.351562 C 460.40625 593.351562 443.371094 589.523438 427.988281 582.648438 C 427.734375 582.554688 427.484375 582.449219 427.242188 582.316406 C 408.4375 573.765625 392.136719 560.640625 379.761719 544.375 C 379.410156 544.011719 379.105469 543.617188 378.867188 543.191406 C 363.578125 522.597656 354.523438 497.117188 354.523438 469.558594 C 354.523438 444.0625 362.144531 419.769531 376.59375 399.003906 C 366.597656 386.710938 354.054688 376.578125 339.769531 369.402344 C 318.558594 398.65625 307.363281 433.179688 307.363281 469.558594 C 307.363281 563.824219 384.054688 640.507812 478.3125 640.507812 C 572.574219 640.507812 649.265625 563.820312 649.265625 469.558594 C 649.265625 375.296875 572.578125 298.609375 478.316406 298.609375 Z M 478.316406 298.609375 " fill-opacity="1" fill-rule="nonzero"/></g></svg>