<svg xmlns="http://www.w3.org/2000/svg" xmlns:xlink="http://www.w3.org/1999/xlink" width="1024" zoomAndPan="magnify" viewBox="0 0 768 767.999994" height="1024" preserveAspectRatio="xMidYMid meet" version="1.0"><defs><clipPath id="77dcdd92a0"><path d="M 162.117188 252 L 258 252 L 258 296 L 162.117188 296 Z M 162.117188 252 " clip-rule="nonzero"/></clipPath><clipPath id="b8ff80b61f"><path d="M 205 312 L 345 312 L 345 608.089844 L 205 608.089844 Z M 205 312 " clip-rule="nonzero"/></clipPath><clipPath id="0621f005d6"><path d="M 362 514 L 406 514 L 406 608.089844 L 362 608.089844 Z M 362 514 " clip-rule="nonzero"/></clipPath><clipPath id="887c0adc5a"><path d="M 423 312 L 563 312 L 563 608.089844 L 423 608.089844 Z M 423 312 " clip-rule="nonzero"/></clipPath></defs><g clip-path="url(#77dcdd92a0)"><path fill="#4096a6" d="M 257.976562 252.066406 L 179.753906 252.066406 C 170.152344 252.066406 162.371094 259.847656 162.371094 269.449219 L 162.371094 278.140625 C 162.371094 287.742188 170.152344 295.523438 179.753906 295.523438 L 257.976562 295.523438 Z M 257.976562 252.066406 " fill-opacity="1" fill-rule="nonzero"/></g><path fill="#4096a6" d="M 336.195312 252.066406 L 431.800781 252.066406 L 431.800781 295.523438 L 336.195312 295.523438 Z M 336.195312 252.066406 " fill-opacity="1" fill-rule="nonzero"/><path fill="#4096a6" d="M 275.359375 252.066406 L 318.816406 252.066406 L 318.816406 295.523438 L 275.359375 295.523438 Z M 275.359375 252.066406 " fill-opacity="1" fill-rule="nonzero"/><path fill="#4096a6" d="M 449.183594 252.066406 L 492.640625 252.066406 L 492.640625 295.523438 L 449.183594 295.523438 Z M 449.183594 252.066406 " fill-opacity="1" fill-rule="nonzero"/><path fill="#4096a6" d="M 588.242188 252.066406 L 510.023438 252.066406 L 510.023438 295.523438 L 588.242188 295.523438 C 597.84375 295.523438 605.625 287.742188 605.625 278.140625 L 605.625 269.449219 C 605.625 259.847656 597.84375 252.066406 588.242188 252.066406 Z M 588.242188 252.066406 " fill-opacity="1" fill-rule="nonzero"/><g clip-path="url(#b8ff80b61f)"><path fill="#4096a6" d="M 310.207031 401.199219 C 318.40625 392.992188 329.316406 388.46875 340.929688 388.46875 L 340.941406 388.46875 C 342.269531 388.46875 343.582031 388.535156 344.886719 388.652344 L 344.886719 312.90625 L 205.828125 312.90625 L 205.828125 582.335938 C 205.828125 596.734375 217.5 608.410156 231.902344 608.410156 L 344.886719 608.410156 L 344.886719 497.332031 L 310.207031 462.648438 C 293.265625 445.707031 293.265625 418.140625 310.207031 401.199219 Z M 310.207031 401.199219 " fill-opacity="1" fill-rule="nonzero"/></g><g clip-path="url(#0621f005d6)"><path fill="#4096a6" d="M 384.003906 532.847656 C 381.78125 532.847656 379.558594 531.996094 377.859375 530.300781 L 362.269531 514.710938 L 362.269531 608.40625 L 405.726562 608.40625 L 405.726562 514.722656 L 390.152344 530.300781 C 388.453125 532 386.230469 532.847656 384.003906 532.847656 Z M 384.003906 532.847656 " fill-opacity="1" fill-rule="nonzero"/></g><path fill="#4096a6" d="M 371.671875 401.207031 L 384.003906 413.53125 L 396.335938 401.199219 C 399.171875 398.363281 402.332031 395.980469 405.726562 394.0625 L 405.726562 312.90625 L 362.269531 312.90625 L 362.269531 394.054688 C 365.671875 395.976562 368.839844 398.367188 371.671875 401.207031 Z M 371.671875 401.207031 " fill-opacity="1" fill-rule="nonzero"/><g clip-path="url(#887c0adc5a)"><path fill="#4096a6" d="M 423.109375 388.648438 C 424.410156 388.53125 425.722656 388.46875 427.046875 388.46875 C 427.085938 388.46875 427.125 388.46875 427.167969 388.46875 C 438.746094 388.5 449.625 393.019531 457.796875 401.203125 C 474.738281 418.140625 474.738281 445.707031 457.792969 462.648438 L 423.109375 497.339844 L 423.109375 608.410156 L 536.097656 608.410156 C 550.496094 608.410156 562.167969 596.734375 562.167969 582.335938 L 562.167969 312.90625 L 423.109375 312.90625 Z M 423.109375 388.648438 " fill-opacity="1" fill-rule="nonzero"/></g><path fill="#4096a6" d="M 445.503906 413.492188 C 440.597656 408.582031 434.070312 405.867188 427.117188 405.847656 C 427.09375 405.847656 427.070312 405.847656 427.046875 405.847656 C 420.09375 405.847656 413.558594 408.5625 408.628906 413.492188 L 390.152344 431.96875 C 386.757812 435.363281 381.257812 435.363281 377.859375 431.96875 L 359.375 413.492188 C 354.457031 408.5625 347.914062 405.851562 340.9375 405.851562 C 340.933594 405.851562 340.929688 405.851562 340.929688 405.851562 C 333.964844 405.851562 327.417969 408.5625 322.503906 413.488281 C 312.335938 423.65625 312.335938 440.195312 322.5 450.359375 L 359.695312 487.554688 C 359.714844 487.574219 359.734375 487.59375 359.753906 487.613281 L 384.003906 511.863281 L 408.246094 487.621094 C 408.265625 487.601562 408.285156 487.582031 408.304688 487.5625 L 445.503906 450.355469 C 455.667969 440.195312 455.667969 423.65625 445.503906 413.492188 Z M 445.503906 413.492188 " fill-opacity="1" fill-rule="nonzero"/><path fill="#4096a6" d="M 344.886719 234.683594 L 344.886719 221.648438 C 344.886719 213.0625 347.679688 205.101562 352.398438 198.640625 L 308.160156 168.363281 C 294.972656 159.574219 277.496094 169.976562 278.929688 185.753906 L 278.835938 234.683594 Z M 344.886719 234.683594 " fill-opacity="1" fill-rule="nonzero"/><path fill="#4096a6" d="M 405.726562 221.648438 C 405.726562 216.953125 404.25 212.488281 401.460938 208.714844 C 399.9375 206.664062 398.078125 204.917969 395.984375 203.542969 L 371.996094 203.542969 C 366.136719 207.445312 362.269531 214.105469 362.269531 221.648438 L 362.269531 234.683594 L 405.726562 234.683594 Z M 405.726562 221.648438 " fill-opacity="1" fill-rule="nonzero"/><path fill="#4096a6" d="M 423.109375 234.683594 L 489.164062 234.683594 L 489.066406 185.753906 C 490.5 169.976562 473.023438 159.574219 459.839844 168.363281 L 415.617188 198.632812 C 420.527344 205.351562 423.109375 213.304688 423.109375 221.648438 Z M 423.109375 234.683594 " fill-opacity="1" fill-rule="nonzero"/></svg>