<svg xmlns="http://www.w3.org/2000/svg" xmlns:xlink="http://www.w3.org/1999/xlink" width="1024" zoomAndPan="magnify" viewBox="0 0 768 767.999994" height="1024" preserveAspectRatio="xMidYMid meet" version="1.0"><defs><clipPath id="d46cdbff02"><path d="M 484 394 L 630 394 L 630 537.898438 L 484 537.898438 Z M 484 394 " clip-rule="nonzero"/></clipPath><clipPath id="5949a7e6e0"><path d="M 485 230.398438 L 629 230.398438 L 629 343 L 485 343 Z M 485 230.398438 " clip-rule="nonzero"/></clipPath><clipPath id="639f356de1"><path d="M 422.539062 355 L 691.039062 355 L 691.039062 518 L 422.539062 518 Z M 422.539062 355 " clip-rule="nonzero"/></clipPath><clipPath id="feb6bf6616"><path d="M 197 230.398438 L 270 230.398438 L 270 279 L 197 279 Z M 197 230.398438 " clip-rule="nonzero"/></clipPath><clipPath id="a57faec414"><path d="M 99.070312 249 L 218 249 L 218 537.898438 L 99.070312 537.898438 Z M 99.070312 249 " clip-rule="nonzero"/></clipPath><clipPath id="ff069121fa"><path d="M 244 249 L 366.820312 249 L 366.820312 537.898438 L 244 537.898438 Z M 244 249 " clip-rule="nonzero"/></clipPath></defs><g clip-path="url(#d46cdbff02)"><path fill="#4096a6" d="M 556.835938 394.613281 C 541.988281 394.613281 528.855469 404.078125 524.160156 418.160156 C 521.753906 425.378906 486.191406 532.070312 484.351562 537.59375 C 506.3125 534.515625 528.378906 532.84375 550.457031 532.574219 L 550.457031 465.203125 C 550.457031 461.578125 553.398438 458.636719 557.027344 458.636719 C 560.652344 458.636719 563.59375 461.578125 563.59375 465.203125 L 563.59375 532.578125 C 585.546875 532.863281 607.484375 534.53125 629.320312 537.59375 C 627.199219 531.230469 592.238281 426.34375 589.511719 418.160156 C 584.816406 404.078125 571.683594 394.613281 556.835938 394.613281 Z M 556.835938 394.613281 " fill-opacity="1" fill-rule="nonzero"/></g><g clip-path="url(#5949a7e6e0)"><path fill="#4096a6" d="M 602.636719 342.0625 C 609.328125 331.796875 632.203125 292.472656 627.957031 240.558594 C 627.484375 234.765625 622.789062 230.398438 617.042969 230.398438 C 611.007812 230.398438 606.097656 235.308594 606.097656 241.34375 L 606.097656 253.542969 C 606.097656 261.640625 602.265625 269.425781 595.84375 274.367188 L 560.839844 301.292969 C 558.480469 303.109375 555.191406 303.109375 552.832031 301.292969 L 517.828125 274.367188 C 511.40625 269.425781 507.570312 261.640625 507.570312 253.542969 C 507.570312 250.472656 507.570312 244.4375 507.570312 241.34375 C 507.570312 235.308594 502.664062 230.398438 496.628906 230.398438 C 490.878906 230.398438 486.1875 234.765625 485.714844 240.558594 C 481.453125 292.660156 504.324219 331.832031 511.027344 342.0625 Z M 602.636719 342.0625 " fill-opacity="1" fill-rule="nonzero"/></g><g clip-path="url(#639f356de1)"><path fill="#4096a6" d="M 602.234375 355.203125 L 511.4375 355.203125 L 422.554688 515.191406 C 440.628906 511.34375 459.417969 512.152344 477.160156 517.621094 L 511.699219 414.007812 C 518.183594 394.550781 536.324219 381.476562 556.835938 381.476562 C 577.347656 381.476562 595.484375 394.550781 601.972656 414.007812 L 636.511719 517.621094 C 654.253906 512.152344 673.042969 511.34375 691.117188 515.191406 Z M 602.234375 355.203125 " fill-opacity="1" fill-rule="nonzero"/></g><path fill="#4096a6" d="M 233.203125 297.25 L 209.160156 312.304688 C 209.882812 313.253906 209.089844 311.976562 220.78125 335.011719 L 245.429688 335.011719 C 256.894531 312.414062 256.359375 313.148438 257.082031 312.199219 Z M 233.203125 297.25 " fill-opacity="1" fill-rule="nonzero"/><path fill="#4096a6" d="M 221.9375 348.089844 L 210.933594 394.28125 L 251.132812 376.796875 C 248.179688 364.402344 245.710938 354.046875 244.292969 348.089844 Z M 221.9375 348.089844 " fill-opacity="1" fill-rule="nonzero"/><path fill="#4096a6" d="M 223.636719 287.8125 L 182.753906 233.011719 L 164.988281 246.261719 L 175.960938 317.660156 Z M 223.636719 287.8125 " fill-opacity="1" fill-rule="nonzero"/><g clip-path="url(#feb6bf6616)"><path fill="#4096a6" d="M 269.042969 230.398438 L 197.117188 230.398438 L 233.082031 278.605469 Z M 269.042969 230.398438 " fill-opacity="1" fill-rule="nonzero"/></g><path fill="#4096a6" d="M 230.5625 418 L 258.15625 406.261719 C 256.816406 400.644531 255.492188 395.082031 254.214844 389.71875 L 207.140625 410.1875 L 193.4375 467.699219 L 265.347656 436.433594 C 264.019531 430.855469 262.632812 425.046875 261.234375 419.164062 L 235.679688 430.035156 C 232.351562 431.449219 228.515625 429.894531 227.105469 426.578125 C 225.691406 423.253906 227.238281 419.414062 230.5625 418 Z M 230.5625 418 " fill-opacity="1" fill-rule="nonzero"/><path fill="#4096a6" d="M 290.28125 317.554688 L 301.253906 246.25 L 283.480469 232.917969 L 242.605469 287.707031 Z M 290.28125 317.554688 " fill-opacity="1" fill-rule="nonzero"/><g clip-path="url(#a57faec414)"><path fill="#4096a6" d="M 177.722656 477.234375 L 209.855469 342.382812 L 198.132812 319.207031 L 174.476562 334.015625 C 170.5 336.503906 165.257812 334.113281 164.542969 329.46875 L 152.320312 249.910156 L 131.121094 249.910156 C 113.457031 249.910156 99.085938 264.28125 99.085938 281.945312 L 99.085938 505.558594 C 99.085938 523.222656 113.457031 537.59375 131.121094 537.59375 L 217.84375 537.59375 L 178.75 482.535156 C 177.710938 481.070312 177.273438 479.117188 177.722656 477.234375 Z M 177.722656 477.234375 " fill-opacity="1" fill-rule="nonzero"/></g><g clip-path="url(#ff069121fa)"><path fill="#4096a6" d="M 335.117188 249.910156 L 313.921875 249.910156 L 301.699219 329.363281 C 300.984375 334.007812 295.742188 336.398438 291.765625 333.910156 L 268.117188 319.105469 C 260.503906 334.175781 257.671875 339.785156 256.753906 341.601562 C 256.722656 341.664062 256.683594 341.738281 256.636719 341.828125 C 256.640625 341.820312 256.644531 341.8125 256.648438 341.804688 C 256.59375 341.917969 256.546875 342.007812 256.511719 342.082031 C 256.511719 342.082031 256.511719 342.078125 256.515625 342.074219 C 256.492188 342.121094 256.46875 342.167969 256.441406 342.21875 C 256.445312 342.210938 256.449219 342.203125 256.453125 342.195312 C 256.441406 342.214844 256.433594 342.230469 256.425781 342.246094 C 256.421875 342.261719 256.414062 342.273438 256.40625 342.289062 C 256.382812 342.332031 256.371094 342.355469 256.367188 342.363281 C 260.71875 360.613281 285.167969 463.175781 288.519531 477.234375 C 288.980469 479.179688 288.527344 481.230469 287.289062 482.804688 L 244.003906 537.59375 L 335.117188 537.59375 C 352.785156 537.59375 367.15625 523.222656 367.15625 505.558594 L 367.15625 281.945312 C 367.15625 264.28125 352.785156 249.910156 335.117188 249.910156 Z M 354.078125 404.78125 C 354.078125 420.332031 341.429688 432.980469 325.878906 432.980469 L 316.898438 432.980469 C 301.347656 432.980469 288.695312 420.332031 288.695312 404.78125 L 288.695312 367.597656 C 288.695312 363.988281 291.625 361.058594 295.234375 361.058594 L 347.542969 361.058594 C 351.152344 361.058594 354.078125 363.988281 354.078125 367.597656 Z M 354.078125 404.78125 " fill-opacity="1" fill-rule="nonzero"/></g><path fill="#4096a6" d="M 301.773438 404.78125 C 301.773438 413.121094 308.558594 419.90625 316.898438 419.90625 L 325.875 419.90625 C 334.21875 419.90625 341.003906 413.121094 341.003906 404.78125 L 341.003906 374.136719 L 301.773438 374.136719 Z M 301.773438 404.78125 " fill-opacity="1" fill-rule="nonzero"/><path fill="#4096a6" d="M 268.429688 449.355469 L 194.15625 481.644531 L 206.710938 499.328125 L 227 488.164062 C 230.164062 486.421875 234.140625 487.574219 235.878906 490.738281 C 237.621094 493.902344 236.46875 497.878906 233.304688 499.617188 L 214.332031 510.058594 L 230.785156 533.234375 L 275.0625 477.183594 C 273.738281 471.632812 271.339844 461.570312 268.429688 449.355469 Z M 268.429688 449.355469 " fill-opacity="1" fill-rule="nonzero"/></svg>