<svg xmlns="http://www.w3.org/2000/svg" xmlns:xlink="http://www.w3.org/1999/xlink" width="1024" zoomAndPan="magnify" viewBox="0 0 768 767.999994" height="1024" preserveAspectRatio="xMidYMid meet" version="1.0"><defs><clipPath id="d7fa2c6c87"><path d="M 243 305 L 587 305 L 587 592.414062 L 243 592.414062 Z M 243 305 " clip-rule="nonzero"/></clipPath><clipPath id="c6eb4589f7"><path d="M 180.628906 297 L 333 297 L 333 414 L 180.628906 414 Z M 180.628906 297 " clip-rule="nonzero"/></clipPath></defs><g clip-path="url(#d7fa2c6c87)"><path fill="#4096a6" d="M 570.070312 305.722656 C 560.449219 305.273438 552.285156 312.710938 551.839844 322.335938 L 551.535156 328.867188 L 545 328.566406 C 535.378906 328.117188 527.214844 335.554688 526.765625 345.179688 C 526.320312 354.800781 533.757812 362.964844 543.378906 363.414062 L 549.519531 363.699219 L 336.578125 363.699219 L 243.382812 407.414062 L 243.382812 592.578125 L 563.816406 592.578125 L 563.816406 364.363281 L 584.761719 365.335938 L 586.6875 323.953125 C 587.132812 314.332031 579.695312 306.167969 570.070312 305.722656 Z M 473.851562 552.941406 L 409.046875 555.953125 C 408.976562 555.957031 408.902344 555.957031 408.832031 555.957031 C 407.695312 555.957031 406.59375 555.535156 405.75 554.765625 C 404.851562 553.945312 404.316406 552.804688 404.261719 551.59375 L 403.109375 526.863281 L 340.292969 523.941406 C 318.714844 522.9375 301.976562 504.566406 302.976562 482.988281 C 303.464844 472.535156 307.992188 462.898438 315.726562 455.851562 C 323.460938 448.800781 333.476562 445.179688 343.933594 445.675781 L 352.320312 446.066406 L 352.710938 437.675781 C 353.195312 427.222656 357.722656 417.585938 365.460938 410.535156 C 391.140625 387.136719 432.59375 406.585938 430.980469 441.316406 L 430.410156 453.542969 C 430.816406 453.507812 431.222656 453.46875 431.625 453.449219 C 449.054688 452.625 464.140625 466.0625 464.964844 483.824219 L 465.226562 489.488281 C 467.933594 489.761719 481.570312 486.316406 493.847656 497.507812 C 500.148438 503.246094 503.832031 511.089844 504.226562 519.601562 C 505.046875 537.167969 491.417969 552.125 473.851562 552.941406 Z M 473.851562 552.941406 " fill-opacity="1" fill-rule="nonzero"/></g><path fill="#4096a6" d="M 350.980469 265.929688 L 384.132812 250.378906 C 402.457031 241.78125 410.332031 219.996094 401.738281 201.671875 C 393.175781 183.417969 371.429688 175.4375 353.03125 184.066406 C 334.75 192.644531 326.851562 214.496094 335.425781 232.777344 Z M 350.980469 265.929688 " fill-opacity="1" fill-rule="nonzero"/><path fill="#4096a6" d="M 309.523438 285.375 C 318.746094 281.050781 341.722656 270.273438 342.691406 269.816406 L 327.136719 236.664062 C 318.578125 218.414062 296.832031 210.429688 278.429688 219.058594 C 260.148438 227.636719 252.253906 249.484375 260.828125 267.769531 C 269.417969 286.082031 291.195312 293.96875 309.523438 285.375 Z M 309.523438 285.375 " fill-opacity="1" fill-rule="nonzero"/><path fill="#4096a6" d="M 313.425781 293.660156 L 340.640625 351.679688 L 415.238281 316.6875 L 388.023438 258.667969 C 379.15625 262.824219 322.296875 289.5 313.425781 293.660156 Z M 313.425781 293.660156 " fill-opacity="1" fill-rule="nonzero"/><path fill="#4096a6" d="M 396.308594 254.777344 L 520.636719 196.449219 L 547.855469 254.46875 L 423.527344 312.792969 Z M 396.308594 254.777344 " fill-opacity="1" fill-rule="nonzero"/><g clip-path="url(#c6eb4589f7)"><path fill="#4096a6" d="M 180.808594 355.867188 L 305.136719 297.542969 L 332.355469 355.558594 L 208.027344 413.886719 Z M 180.808594 355.867188 " fill-opacity="1" fill-rule="nonzero"/></g><path fill="#4096a6" d="M 471.3125 498.367188 L 461.082031 498.84375 C 458.566406 498.953125 456.414062 497.007812 456.296875 494.484375 C 455.3125 488.117188 458.113281 477.328125 448.421875 468.5 C 443.929688 464.410156 438.113281 462.3125 432.050781 462.59375 C 431.359375 462.625 430.667969 462.699219 429.980469 462.796875 L 427.164062 523.398438 C 427.046875 525.851562 425.023438 527.761719 422.59375 527.761719 C 422.519531 527.761719 422.449219 527.761719 422.375 527.757812 L 412.296875 527.289062 L 413.191406 546.59375 L 473.425781 543.792969 C 485.949219 543.210938 495.664062 532.546875 495.082031 520.023438 C 494.5 507.519531 483.917969 497.792969 471.3125 498.367188 Z M 471.3125 498.367188 " fill-opacity="1" fill-rule="nonzero"/><path fill="#4096a6" d="M 421.832031 440.890625 C 423.070312 414.292969 391.320312 399.359375 371.625 417.304688 C 365.699219 422.707031 362.226562 430.089844 361.855469 438.101562 L 361.253906 451.0625 C 361.136719 453.585938 358.992188 455.546875 356.46875 455.421875 L 343.507812 454.820312 C 326.835938 454.070312 312.890625 466.910156 312.125 483.414062 C 311.355469 499.949219 324.183594 514.027344 340.71875 514.796875 L 418.230469 518.398438 Z M 421.832031 440.890625 " fill-opacity="1" fill-rule="nonzero"/></svg>