<svg xmlns="http://www.w3.org/2000/svg" xmlns:xlink="http://www.w3.org/1999/xlink" width="1024" zoomAndPan="magnify" viewBox="0 0 768 767.999994" height="1024" preserveAspectRatio="xMidYMid meet" version="1.0"><defs><clipPath id="9b8800bf51"><path d="M 166 206 L 595 206 L 595 634.957031 L 166 634.957031 Z M 166 206 " clip-rule="nonzero"/></clipPath></defs><path fill="#4096a6" d="M 256.5 536.976562 C 244.5625 525.039062 225.132812 525.039062 213.191406 536.980469 C 209.304688 540.863281 203.007812 540.867188 199.121094 536.984375 C 187.160156 525.03125 167.773438 525.011719 155.808594 536.980469 C 143.875 548.917969 143.871094 568.339844 155.796875 580.285156 C 162.109375 586.597656 199.871094 624.359375 206.15625 630.644531 L 256.503906 580.296875 C 268.46875 568.324219 268.472656 548.957031 256.5 536.976562 Z M 256.5 536.976562 " fill-opacity="1" fill-rule="nonzero"/><path fill="#4096a6" d="M 437.234375 219.363281 L 437.234375 219.359375 L 487.582031 269.707031 C 624.082031 133.199219 410.207031 347.070312 537.925781 219.359375 C 543.710938 213.574219 546.894531 205.878906 546.894531 197.699219 C 546.894531 180.804688 533.234375 167.074219 516.273438 167.074219 C 508.09375 167.074219 500.402344 170.257812 494.617188 176.042969 C 490.734375 179.925781 484.433594 179.925781 480.546875 176.042969 C 474.757812 170.257812 467.066406 167.074219 458.894531 167.074219 C 431.789062 167.074219 417.941406 200.058594 437.234375 219.363281 Z M 437.234375 219.363281 " fill-opacity="1" fill-rule="nonzero"/><path fill="#4096a6" d="M 450.34375 420.820312 C 450.34375 382.414062 419.09375 351.164062 380.6875 351.164062 C 342.277344 351.164062 311.03125 382.414062 311.03125 420.820312 C 311.03125 459.230469 342.277344 490.476562 380.6875 490.476562 C 419.09375 490.476562 450.34375 459.230469 450.34375 420.820312 Z M 345.304688 420.820312 C 345.304688 401.3125 361.175781 385.441406 380.6875 385.441406 C 400.195312 385.441406 416.066406 401.3125 416.066406 420.820312 C 416.066406 440.332031 400.195312 456.203125 380.6875 456.203125 C 361.175781 456.203125 345.304688 440.332031 345.304688 420.820312 Z M 345.304688 420.820312 " fill-opacity="1" fill-rule="nonzero"/><g clip-path="url(#9b8800bf51)"><path fill="#4096a6" d="M 523.703125 261.726562 C 486.507812 298.925781 501.53125 283.902344 494.617188 290.816406 C 490.730469 294.703125 484.429688 294.703125 480.542969 290.816406 L 423.160156 233.433594 C 415.828125 226.09375 411.402344 217.574219 409.464844 208.804688 C 281.152344 191.410156 166.742188 291.546875 166.742188 420.820312 C 166.742188 451.554688 173.089844 481.113281 185.605469 508.773438 C 192.886719 509.957031 199.929688 512.71875 206.164062 517.035156 C 225.835938 503.453125 253.078125 505.410156 270.578125 522.90625 C 290.3125 542.660156 290.328125 574.601562 270.582031 594.367188 C 268.460938 596.488281 266.429688 598.515625 264.472656 600.476562 C 299.078125 622.941406 339.011719 634.765625 380.6875 634.765625 C 498.65625 634.765625 594.632812 538.792969 594.632812 420.820312 C 594.632812 359.8125 568.882812 302.34375 523.703125 261.726562 Z M 243.363281 420.820312 C 243.363281 426.316406 238.90625 430.773438 233.410156 430.773438 C 227.914062 430.773438 223.460938 426.316406 223.460938 420.820312 C 223.460938 334.128906 293.992188 263.597656 380.6875 263.597656 C 386.183594 263.597656 390.636719 268.050781 390.636719 273.546875 C 390.636719 279.042969 386.183594 283.496094 380.6875 283.496094 C 304.964844 283.496094 243.363281 345.101562 243.363281 420.820312 Z M 291.128906 420.820312 C 291.128906 371.4375 331.304688 331.261719 380.6875 331.261719 C 430.070312 331.261719 470.246094 371.4375 470.246094 420.820312 C 470.246094 470.203125 430.070312 510.378906 380.6875 510.378906 C 331.304688 510.378906 291.128906 470.203125 291.128906 420.820312 Z M 380.6875 578.046875 C 375.191406 578.046875 370.734375 573.589844 370.734375 568.09375 C 370.734375 562.597656 375.191406 558.144531 380.6875 558.144531 C 456.40625 558.144531 518.007812 496.542969 518.007812 420.820312 C 518.007812 415.324219 522.464844 410.871094 527.960938 410.871094 C 533.457031 410.871094 537.910156 415.324219 537.910156 420.820312 C 537.910156 507.515625 467.378906 578.046875 380.6875 578.046875 Z M 380.6875 578.046875 " fill-opacity="1" fill-rule="nonzero"/></g></svg>