<svg xmlns="http://www.w3.org/2000/svg" xmlns:xlink="http://www.w3.org/1999/xlink" width="1024" zoomAndPan="magnify" viewBox="0 0 768 767.999994" height="1024" preserveAspectRatio="xMidYMid meet" version="1.0"><defs><clipPath id="42392f7865"><path d="M 412 128.496094 L 549 128.496094 L 549 197 L 412 197 Z M 412 128.496094 " clip-rule="nonzero"/></clipPath><clipPath id="d2bf1be176"><path d="M 151.171875 355 L 265 355 L 265 447 L 151.171875 447 Z M 151.171875 355 " clip-rule="nonzero"/></clipPath><clipPath id="951d567727"><path d="M 502 457 L 616.921875 457 L 616.921875 549 L 502 549 Z M 502 457 " clip-rule="nonzero"/></clipPath><clipPath id="9d71c67724"><path d="M 151.171875 457 L 265 457 L 265 549 L 151.171875 549 Z M 151.171875 457 " clip-rule="nonzero"/></clipPath><clipPath id="0a8df09768"><path d="M 151.171875 264 L 616.921875 264 L 616.921875 345 L 151.171875 345 Z M 151.171875 264 " clip-rule="nonzero"/></clipPath><clipPath id="f00f437ed9"><path d="M 502 355 L 616.921875 355 L 616.921875 447 L 502 447 Z M 502 355 " clip-rule="nonzero"/></clipPath><clipPath id="0c1befb4c6"><path d="M 151.171875 560 L 616.921875 560 L 616.921875 639.246094 L 151.171875 639.246094 Z M 151.171875 560 " clip-rule="nonzero"/></clipPath></defs><path fill="#4096a6" d="M 374.570312 480.09375 C 374.589844 480.105469 374.605469 480.121094 374.621094 480.132812 C 377.484375 482.574219 380.652344 485.277344 383.949219 488.152344 C 387.371094 485.164062 390.644531 482.378906 393.296875 480.117188 C 401.703125 472.953125 408.957031 466.769531 413.808594 460.914062 C 418.761719 454.9375 420.972656 449.636719 420.972656 443.730469 C 420.972656 438.140625 419.101562 433.035156 415.703125 429.347656 C 412.367188 425.734375 407.785156 423.742188 402.792969 423.742188 C 399.101562 423.742188 395.847656 424.867188 392.847656 427.1875 C 391.277344 428.402344 389.832031 429.917969 388.550781 431.6875 C 387.480469 433.164062 385.769531 434.039062 383.949219 434.039062 C 382.128906 434.039062 380.414062 433.164062 379.347656 431.6875 C 378.066406 429.917969 376.621094 428.402344 375.050781 427.1875 C 372.054688 424.867188 368.800781 423.742188 365.105469 423.742188 C 360.117188 423.742188 355.53125 425.734375 352.199219 429.347656 C 348.796875 433.035156 346.925781 438.144531 346.925781 443.730469 C 346.925781 449.636719 349.136719 454.9375 354.089844 460.914062 C 358.941406 466.769531 366.183594 472.945312 374.570312 480.09375 Z M 374.570312 480.09375 " fill-opacity="1" fill-rule="nonzero"/><path fill="#4096a6" d="M 383.949219 537.300781 C 430.910156 537.300781 469.117188 499.09375 469.117188 452.132812 C 469.117188 405.171875 430.910156 366.964844 383.949219 366.964844 C 336.988281 366.964844 298.78125 405.171875 298.78125 452.132812 C 298.78125 499.09375 336.988281 537.300781 383.949219 537.300781 Z M 343.847656 421.652344 C 349.355469 415.679688 356.90625 412.386719 365.105469 412.386719 C 371.324219 412.386719 377.007812 414.34375 381.996094 418.207031 C 382.667969 418.722656 383.316406 419.269531 383.949219 419.847656 C 384.582031 419.269531 385.234375 418.722656 385.902344 418.207031 C 390.890625 414.34375 396.574219 412.386719 402.792969 412.386719 C 410.992188 412.386719 418.539062 415.679688 424.050781 421.652344 C 429.386719 427.441406 432.328125 435.28125 432.328125 443.730469 C 432.328125 452.351562 429.222656 460.113281 422.550781 468.160156 C 417.070312 474.777344 409.472656 481.25 400.675781 488.75 C 397.921875 491.097656 394.507812 494 390.988281 497.082031 C 389.039062 498.785156 386.539062 499.722656 383.949219 499.722656 C 381.355469 499.722656 378.851562 498.78125 376.902344 497.074219 C 373.511719 494.109375 370.21875 491.300781 367.316406 488.828125 C 358.433594 481.257812 350.832031 474.78125 345.34375 468.160156 C 338.675781 460.113281 335.570312 452.347656 335.570312 443.730469 C 335.570312 435.285156 338.507812 427.441406 343.847656 421.652344 Z M 343.847656 421.652344 " fill-opacity="1" fill-rule="nonzero"/><g clip-path="url(#42392f7865)"><path fill="#4096a6" d="M 520.21875 196.628906 L 548.605469 196.628906 L 548.605469 128.496094 L 412.335938 128.496094 L 412.335938 196.628906 Z M 520.21875 196.628906 " fill-opacity="1" fill-rule="nonzero"/></g><path fill="#4096a6" d="M 242 219.339844 L 310.136719 219.339844 L 310.136719 253.40625 L 242 253.40625 Z M 242 219.339844 " fill-opacity="1" fill-rule="nonzero"/><path fill="#4096a6" d="M 383.949219 594.078125 C 462.21875 594.078125 525.894531 530.402344 525.894531 452.132812 C 525.894531 373.863281 462.21875 310.1875 383.949219 310.1875 C 305.679688 310.1875 242 373.863281 242 452.132812 C 242 530.402344 305.679688 594.078125 383.949219 594.078125 Z M 383.949219 355.609375 C 437.171875 355.609375 480.472656 398.910156 480.472656 452.132812 C 480.472656 505.355469 437.171875 548.65625 383.949219 548.65625 C 330.726562 548.65625 287.425781 505.355469 287.425781 452.132812 C 287.425781 398.910156 330.726562 355.609375 383.949219 355.609375 Z M 383.949219 355.609375 " fill-opacity="1" fill-rule="nonzero"/><g clip-path="url(#d2bf1be176)"><path fill="#4096a6" d="M 264.945312 355.609375 L 151.15625 355.609375 L 151.15625 446.457031 L 230.761719 446.457031 C 232.019531 412.105469 244.628906 380.609375 264.945312 355.609375 Z M 264.945312 355.609375 " fill-opacity="1" fill-rule="nonzero"/></g><g clip-path="url(#951d567727)"><path fill="#4096a6" d="M 502.953125 548.65625 L 616.742188 548.65625 L 616.742188 457.808594 L 537.136719 457.808594 C 535.878906 492.160156 523.269531 523.65625 502.953125 548.65625 Z M 502.953125 548.65625 " fill-opacity="1" fill-rule="nonzero"/></g><g clip-path="url(#9d71c67724)"><path fill="#4096a6" d="M 230.761719 457.8125 L 151.15625 457.8125 L 151.15625 548.65625 L 264.945312 548.65625 C 244.628906 523.65625 232.019531 492.160156 230.761719 457.8125 Z M 230.761719 457.8125 " fill-opacity="1" fill-rule="nonzero"/></g><g clip-path="url(#0a8df09768)"><path fill="#4096a6" d="M 569.046875 264.761719 L 198.851562 264.761719 C 172.550781 264.761719 151.15625 286.160156 151.15625 312.457031 L 151.15625 344.253906 L 275.140625 344.253906 C 302.933594 316.222656 341.445312 298.832031 383.949219 298.832031 C 426.449219 298.832031 464.964844 316.222656 492.757812 344.253906 L 616.742188 344.253906 L 616.742188 312.457031 C 616.742188 286.160156 595.34375 264.761719 569.046875 264.761719 Z M 569.046875 264.761719 " fill-opacity="1" fill-rule="nonzero"/></g><g clip-path="url(#f00f437ed9)"><path fill="#4096a6" d="M 537.136719 446.453125 L 616.742188 446.453125 L 616.742188 355.609375 L 502.953125 355.609375 C 523.269531 380.609375 535.878906 412.105469 537.136719 446.453125 Z M 537.136719 446.453125 " fill-opacity="1" fill-rule="nonzero"/></g><g clip-path="url(#0c1befb4c6)"><path fill="#4096a6" d="M 383.949219 605.433594 C 341.445312 605.433594 302.933594 588.046875 275.136719 560.011719 L 151.15625 560.011719 L 151.15625 591.808594 C 151.15625 618.105469 172.550781 639.503906 198.851562 639.503906 L 569.046875 639.503906 C 595.347656 639.503906 616.742188 618.105469 616.742188 591.808594 L 616.742188 560.011719 L 492.757812 560.011719 C 464.964844 588.046875 426.449219 605.433594 383.949219 605.433594 Z M 383.949219 605.433594 " fill-opacity="1" fill-rule="nonzero"/></g><path fill="#4096a6" d="M 446.40625 207.984375 L 514.539062 207.984375 L 514.539062 253.40625 L 446.40625 253.40625 Z M 446.40625 207.984375 " fill-opacity="1" fill-rule="nonzero"/></svg>