<svg xmlns="http://www.w3.org/2000/svg" xmlns:xlink="http://www.w3.org/1999/xlink" width="1024" zoomAndPan="magnify" viewBox="0 0 768 767.999994" height="1024" preserveAspectRatio="xMidYMid meet" version="1.0"><defs><clipPath id="f947159dc0"><path d="M 214.074219 155.910156 L 553.824219 155.910156 L 553.824219 611.910156 L 214.074219 611.910156 Z M 214.074219 155.910156 " clip-rule="nonzero"/></clipPath></defs><g clip-path="url(#f947159dc0)"><path fill="#4096a6" d="M 548.996094 155.910156 L 218.996094 155.910156 C 216.316406 155.910156 214.140625 158.082031 214.140625 160.761719 L 214.140625 607.234375 C 214.140625 609.914062 216.316406 612.085938 218.996094 612.085938 L 548.996094 612.085938 C 551.675781 612.085938 553.847656 609.914062 553.847656 607.234375 L 553.847656 160.761719 C 553.847656 158.082031 551.675781 155.910156 548.996094 155.910156 Z M 515.023438 541.234375 C 515.023438 543.914062 512.851562 546.085938 510.171875 546.085938 C 497.863281 546.085938 487.847656 556.097656 487.847656 568.410156 C 487.847656 571.089844 485.675781 573.261719 482.992188 573.261719 L 284.996094 573.261719 C 282.316406 573.261719 280.140625 571.089844 280.140625 568.410156 C 280.140625 556.097656 270.128906 546.085938 257.820312 546.085938 C 255.136719 546.085938 252.964844 543.914062 252.964844 541.234375 L 252.964844 226.761719 C 252.964844 224.082031 255.136719 221.910156 257.820312 221.910156 C 270.128906 221.910156 280.140625 211.894531 280.140625 199.585938 C 280.140625 196.90625 282.3125 194.734375 284.996094 194.734375 L 482.996094 194.734375 C 485.675781 194.734375 487.847656 196.90625 487.847656 199.585938 C 487.847656 211.894531 497.863281 221.910156 510.171875 221.910156 C 512.851562 221.910156 515.023438 224.082031 515.023438 226.761719 Z M 515.023438 541.234375 " fill-opacity="1" fill-rule="nonzero"/></g><path fill="#4096a6" d="M 478.507812 204.4375 L 289.480469 204.4375 C 287.378906 218.222656 276.457031 229.144531 262.671875 231.25 L 262.671875 536.746094 C 276.457031 538.851562 287.378906 549.773438 289.480469 563.554688 L 478.507812 563.554688 C 480.613281 549.773438 491.535156 538.851562 505.320312 536.746094 L 505.320312 231.25 C 491.535156 229.144531 480.613281 218.222656 478.507812 204.4375 Z M 345.171875 505.320312 L 296.640625 505.320312 C 293.960938 505.320312 291.789062 503.148438 291.789062 500.46875 C 291.789062 497.785156 293.960938 495.613281 296.640625 495.613281 L 345.171875 495.613281 C 347.851562 495.613281 350.023438 497.785156 350.023438 500.46875 C 350.023438 503.148438 347.851562 505.320312 345.171875 505.320312 Z M 345.171875 466.496094 L 296.640625 466.496094 C 293.960938 466.496094 291.789062 464.324219 291.789062 461.644531 C 291.789062 458.964844 293.960938 456.789062 296.640625 456.789062 L 345.171875 456.789062 C 347.851562 456.789062 350.023438 458.964844 350.023438 461.644531 C 350.023438 464.324219 347.851562 466.496094 345.171875 466.496094 Z M 345.171875 427.675781 L 296.640625 427.675781 C 293.960938 427.675781 291.789062 425.5 291.789062 422.820312 C 291.789062 420.140625 293.960938 417.96875 296.640625 417.96875 L 345.171875 417.96875 C 347.851562 417.96875 350.023438 420.140625 350.023438 422.820312 C 350.023438 425.5 347.851562 427.675781 345.171875 427.675781 Z M 345.171875 388.851562 L 296.640625 388.851562 C 293.960938 388.851562 291.789062 386.679688 291.789062 383.996094 C 291.789062 381.316406 293.960938 379.144531 296.640625 379.144531 L 345.171875 379.144531 C 347.851562 379.144531 350.023438 381.316406 350.023438 383.996094 C 350.023438 386.679688 347.851562 388.851562 345.171875 388.851562 Z M 336.582031 296.445312 C 336.550781 296.414062 336.515625 296.382812 336.488281 296.351562 C 324.359375 284.226562 324.359375 264.496094 336.488281 252.371094 C 342.359375 246.496094 350.167969 243.265625 358.476562 243.265625 C 366.78125 243.265625 374.59375 246.5 380.46875 252.371094 L 383.996094 255.898438 L 387.523438 252.371094 C 393.398438 246.496094 401.207031 243.265625 409.511719 243.265625 C 417.820312 243.265625 425.628906 246.5 431.503906 252.371094 C 443.628906 264.496094 443.628906 284.226562 431.503906 296.351562 C 431.472656 296.382812 431.441406 296.414062 431.40625 296.445312 L 396.125 329.847656 C 392.773438 333.171875 388.386719 334.835938 383.996094 334.835938 C 379.605469 334.835938 375.214844 333.171875 371.863281 329.847656 Z M 471.347656 505.320312 L 383.996094 505.320312 C 381.316406 505.320312 379.140625 503.148438 379.140625 500.46875 C 379.140625 497.785156 381.3125 495.613281 383.996094 495.613281 L 471.347656 495.613281 C 474.027344 495.613281 476.203125 497.785156 476.203125 500.46875 C 476.203125 503.148438 474.027344 505.320312 471.347656 505.320312 Z M 471.347656 466.496094 L 383.996094 466.496094 C 381.316406 466.496094 379.140625 464.324219 379.140625 461.644531 C 379.140625 458.964844 381.3125 456.789062 383.996094 456.789062 L 471.347656 456.789062 C 474.027344 456.789062 476.203125 458.964844 476.203125 461.644531 C 476.203125 464.324219 474.027344 466.496094 471.347656 466.496094 Z M 471.347656 427.675781 L 383.996094 427.675781 C 381.316406 427.675781 379.140625 425.5 379.140625 422.820312 C 379.140625 420.140625 381.3125 417.96875 383.996094 417.96875 L 471.347656 417.96875 C 474.027344 417.96875 476.203125 420.140625 476.203125 422.820312 C 476.199219 425.5 474.027344 427.675781 471.347656 427.675781 Z M 471.347656 388.851562 L 383.996094 388.851562 C 381.316406 388.851562 379.140625 386.679688 379.140625 383.996094 C 379.140625 381.316406 381.3125 379.144531 383.996094 379.144531 L 471.347656 379.144531 C 474.027344 379.144531 476.203125 381.316406 476.203125 383.996094 C 476.203125 386.679688 474.027344 388.851562 471.347656 388.851562 Z M 471.347656 388.851562 " fill-opacity="1" fill-rule="nonzero"/><path fill="#4096a6" d="M 389.3125 322.933594 C 389.34375 322.902344 389.375 322.871094 389.410156 322.84375 L 424.683594 289.445312 C 432.980469 281.101562 432.964844 267.5625 424.640625 259.234375 C 420.601562 255.195312 415.226562 252.96875 409.511719 252.96875 C 403.800781 252.96875 398.425781 255.195312 394.386719 259.234375 L 387.425781 266.195312 C 385.53125 268.089844 382.457031 268.089844 380.5625 266.195312 L 373.601562 259.234375 C 369.5625 255.195312 364.191406 252.96875 358.476562 252.96875 C 352.761719 252.96875 347.390625 255.195312 343.347656 259.234375 C 335.023438 267.558594 335.007812 281.101562 343.304688 289.445312 L 378.578125 322.839844 C 378.613281 322.871094 378.644531 322.902344 378.675781 322.933594 C 380.097656 324.355469 381.984375 325.136719 383.996094 325.136719 C 386.003906 325.136719 387.894531 324.355469 389.3125 322.933594 Z M 389.3125 322.933594 " fill-opacity="1" fill-rule="nonzero"/></svg>