<svg xmlns="http://www.w3.org/2000/svg" xmlns:xlink="http://www.w3.org/1999/xlink" width="1024" zoomAndPan="magnify" viewBox="0 0 768 767.999994" height="1024" preserveAspectRatio="xMidYMid meet" version="1.0"><defs><clipPath id="6d7514213d"><path d="M 518 414 L 656.421875 414 L 656.421875 656.421875 L 518 656.421875 Z M 518 414 " clip-rule="nonzero"/></clipPath><clipPath id="ee1c7dfefc"><path d="M 111.921875 414 L 252 414 L 252 656.421875 L 111.921875 656.421875 Z M 111.921875 414 " clip-rule="nonzero"/></clipPath><clipPath id="95ddf15621"><path d="M 336 570 L 374 570 L 374 656.421875 L 336 656.421875 Z M 336 570 " clip-rule="nonzero"/></clipPath><clipPath id="a790fbca66"><path d="M 395 570 L 433 570 L 433 656.421875 L 395 656.421875 Z M 395 570 " clip-rule="nonzero"/></clipPath><clipPath id="716af7dd72"><path d="M 272 275 L 497 275 L 497 656.421875 L 272 656.421875 Z M 272 275 " clip-rule="nonzero"/></clipPath><clipPath id="7f62cc6ab0"><path d="M 347 111.921875 L 422 111.921875 L 422 176 L 347 176 Z M 347 111.921875 " clip-rule="nonzero"/></clipPath></defs><path fill="#4096a6" d="M 234.652344 355.199219 C 233.695312 355.871094 318.535156 295.996094 323.039062 292.816406 L 384.65625 249.324219 C 510.761719 338.328125 457.140625 300.488281 534.660156 355.199219 C 544.289062 361.992188 557.601562 359.699219 564.398438 350.070312 C 571.195312 340.441406 568.902344 327.125 559.269531 320.328125 L 384.933594 197.28125 L 384.65625 197.675781 L 384.378906 197.28125 L 210.039062 320.328125 C 200.410156 327.121094 198.113281 340.441406 204.910156 350.070312 C 211.707031 359.699219 225.023438 361.992188 234.652344 355.199219 Z M 234.652344 355.199219 " fill-opacity="1" fill-rule="nonzero"/><path fill="#4096a6" d="M 587.050781 496.027344 C 581.0625 496.027344 576.191406 500.898438 576.191406 506.886719 L 576.191406 592.054688 L 597.90625 592.054688 L 597.90625 506.886719 C 597.90625 500.898438 593.035156 496.027344 587.050781 496.027344 Z M 587.050781 496.027344 " fill-opacity="1" fill-rule="nonzero"/><g clip-path="url(#6d7514213d)"><path fill="#4096a6" d="M 518.027344 414.222656 L 518.027344 656.070312 L 656.070312 656.070312 L 656.070312 463.527344 Z M 619.246094 602.722656 C 619.246094 608.613281 614.46875 613.394531 608.578125 613.394531 L 565.523438 613.394531 C 559.628906 613.394531 554.851562 608.613281 554.851562 602.722656 L 554.851562 506.886719 C 554.851562 489.132812 569.296875 474.6875 587.050781 474.6875 C 604.804688 474.6875 619.246094 489.132812 619.246094 506.886719 Z M 619.246094 602.722656 " fill-opacity="1" fill-rule="nonzero"/></g><path fill="#4096a6" d="M 192.464844 506.886719 C 192.464844 500.898438 187.59375 496.027344 181.605469 496.027344 C 175.617188 496.027344 170.75 500.898438 170.75 506.886719 L 170.75 592.054688 L 192.464844 592.054688 Z M 192.464844 506.886719 " fill-opacity="1" fill-rule="nonzero"/><g clip-path="url(#ee1c7dfefc)"><path fill="#4096a6" d="M 111.921875 656.070312 L 251.289062 656.070312 L 251.289062 414.191406 L 111.921875 463.527344 Z M 149.410156 506.886719 C 149.410156 489.132812 163.851562 474.6875 181.605469 474.6875 C 199.359375 474.6875 213.800781 489.132812 213.800781 506.886719 L 213.800781 602.722656 C 213.800781 608.613281 209.027344 613.394531 203.132812 613.394531 L 160.078125 613.394531 C 154.1875 613.394531 149.410156 608.613281 149.410156 602.722656 Z M 149.410156 506.886719 " fill-opacity="1" fill-rule="nonzero"/></g><g clip-path="url(#95ddf15621)"><path fill="#4096a6" d="M 336.644531 570.714844 L 373.988281 570.714844 L 373.988281 656.070312 L 336.644531 656.070312 Z M 336.644531 570.714844 " fill-opacity="1" fill-rule="nonzero"/></g><g clip-path="url(#a790fbca66)"><path fill="#4096a6" d="M 395.324219 570.714844 L 432.667969 570.714844 L 432.667969 656.070312 L 395.324219 656.070312 Z M 395.324219 570.714844 " fill-opacity="1" fill-rule="nonzero"/></g><path fill="#4096a6" d="M 336.644531 533.371094 L 336.644531 549.375 L 373.988281 549.375 L 373.988281 486.566406 C 352.632812 491.433594 336.644531 510.5625 336.644531 533.371094 Z M 336.644531 533.371094 " fill-opacity="1" fill-rule="nonzero"/><g clip-path="url(#716af7dd72)"><path fill="#4096a6" d="M 272.628906 354.515625 L 272.628906 656.070312 L 315.304688 656.070312 L 315.304688 533.371094 C 315.304688 495.128906 346.414062 464.019531 384.65625 464.019531 C 422.898438 464.019531 454.007812 495.128906 454.007812 533.371094 L 454.007812 656.070312 L 496.6875 656.070312 L 496.6875 354.515625 L 384.660156 275.445312 Z M 420.847656 325.335938 C 430.613281 325.640625 439.917969 330.035156 446.375 337.386719 C 458.839844 351.503906 458.1875 373.011719 444.878906 386.335938 C 431.335938 399.996094 425.738281 405.636719 423.652344 407.742188 C 423.640625 407.753906 423.628906 407.765625 423.617188 407.78125 C 423.609375 407.789062 423.589844 407.808594 423.558594 407.839844 C 423.546875 407.851562 423.535156 407.863281 423.523438 407.875 L 422.921875 408.480469 C 422.902344 408.5 422.886719 408.519531 422.867188 408.535156 C 420.757812 410.660156 413.488281 417.988281 392.121094 439.527344 C 390.117188 441.542969 387.390625 442.679688 384.546875 442.679688 C 381.703125 442.679688 378.976562 441.546875 376.972656 439.527344 L 324.742188 386.902344 C 324.546875 386.707031 324.363281 386.511719 324.1875 386.316406 L 324.171875 386.328125 C 313.796875 375.886719 306.914062 353.332031 324.085938 335.894531 C 324.171875 335.804688 324.265625 335.714844 324.359375 335.625 C 330.871094 329.066406 339.953125 325.316406 349.347656 325.316406 C 358.546875 325.316406 366.722656 328.847656 373.644531 335.808594 L 383.851562 346.101562 L 394.648438 335.71875 C 401.570312 328.8125 411.109375 325.03125 420.847656 325.335938 Z M 420.847656 325.335938 " fill-opacity="1" fill-rule="nonzero"/></g><path fill="#4096a6" d="M 376.097656 368.589844 L 358.503906 350.847656 C 355.625 347.949219 352.796875 346.65625 349.34375 346.65625 C 345.617188 346.65625 341.894531 348.191406 339.398438 350.765625 C 339.300781 350.863281 339.203125 350.960938 339.101562 351.058594 C 329.757812 360.808594 339.210938 371.1875 339.3125 371.289062 C 339.316406 371.296875 339.324219 371.304688 339.328125 371.308594 C 340.03125 372.015625 370.078125 402.289062 384.542969 416.863281 L 408.070312 393.152344 C 408.117188 393.105469 408.164062 393.058594 408.210938 393.007812 L 429.746094 371.296875 C 429.753906 371.285156 429.765625 371.273438 429.773438 371.265625 C 435.148438 365.890625 435.40625 357.203125 430.359375 351.488281 C 427.730469 348.492188 424.121094 346.789062 420.179688 346.664062 C 416.222656 346.546875 412.5 348.03125 409.683594 350.863281 C 409.628906 350.914062 409.574219 350.96875 409.519531 351.023438 L 391.070312 368.765625 C 386.871094 372.804688 380.203125 372.726562 376.097656 368.589844 Z M 376.097656 368.589844 " fill-opacity="1" fill-rule="nonzero"/><path fill="#4096a6" d="M 395.324219 486.566406 L 395.324219 549.375 L 432.667969 549.375 L 432.667969 533.371094 C 432.667969 510.5625 416.679688 491.433594 395.324219 486.566406 Z M 395.324219 486.566406 " fill-opacity="1" fill-rule="nonzero"/><g clip-path="url(#7f62cc6ab0)"><path fill="#4096a6" d="M 357.980469 154.601562 L 373.988281 154.601562 L 373.988281 175.941406 L 395.324219 175.941406 L 395.324219 154.601562 L 411.328125 154.601562 C 417.222656 154.601562 422 149.824219 422 143.929688 C 422 138.039062 417.222656 133.261719 411.328125 133.261719 L 395.324219 133.261719 L 395.324219 122.59375 C 395.324219 116.699219 390.546875 111.921875 384.65625 111.921875 C 378.761719 111.921875 373.988281 116.699219 373.988281 122.59375 L 373.988281 133.261719 L 357.980469 133.261719 C 352.089844 133.261719 347.3125 138.039062 347.3125 143.929688 C 347.3125 149.824219 352.089844 154.601562 357.980469 154.601562 Z M 357.980469 154.601562 " fill-opacity="1" fill-rule="nonzero"/></g></svg>